<svg version="1.1" id="Layer_1" xmlns="http://www.w3.org/2000/svg" xmlns:xlink="http://www.w3.org/1999/xlink" x="0px" y="0px"
	 width="100%" viewBox="0 0 148 53" enable-background="new 0 0 148 53" xml:space="preserve">
<path fill="#000000" opacity="1.000000" stroke="none" 
	d="
M1.000000,12.000000 
	C1.000000,8.337376 1.000000,4.674752 1.000000,1.009096 
	C50.274902,1.006064 99.549805,1.006064 148.912354,1.006064 
	C148.912354,18.588369 148.912354,36.177319 148.912354,53.883133 
	C99.666832,53.883133 50.333462,53.883133 1.000045,53.890293 
	C1.000000,41.910740 1.000000,29.924028 1.271378,17.128380 
	C4.181671,22.190172 7.370431,27.888630 9.281240,33.987480 
	C10.744955,38.659306 13.374072,38.240719 17.462179,37.596558 
	C14.668116,30.773535 11.474125,24.380886 9.480503,17.633568 
	C8.041439,12.763122 5.545189,11.299411 1.000000,12.000000 
M115.107765,22.581551 
	C115.135170,26.575602 115.021614,30.578991 115.285110,34.557404 
	C115.354462,35.604416 116.590157,36.574181 117.290253,37.579418 
	C118.064301,36.869686 119.112526,36.302002 119.566208,35.426292 
	C121.858871,31.000982 125.975006,30.736645 128.958618,34.795055 
	C129.892532,36.065388 131.290619,36.994457 131.868759,37.523666 
	C133.167740,33.524593 133.972473,30.310791 135.240921,27.291819 
	C138.086166,20.519964 134.255844,14.310136 126.859085,14.017854 
	C125.529396,13.965312 124.196167,13.998030 122.864571,13.998812 
	C115.158234,14.003340 115.158234,14.004093 115.107765,22.581551 
M109.254486,36.549744 
	C108.011314,33.724739 107.875679,31.405190 109.948563,28.452496 
	C113.130699,23.919752 112.342476,17.628429 107.852791,15.898102 
	C103.238731,14.119841 97.661903,14.799079 92.499054,14.564194 
	C92.096214,14.545867 91.270432,15.790056 91.258720,16.458288 
	C91.148315,22.757875 91.117264,29.060810 91.230904,35.359753 
	C91.244240,36.098564 92.267807,36.819149 92.823051,37.548183 
	C93.502098,36.980217 94.230133,36.460686 94.849792,35.833996 
	C96.062660,34.607365 97.327461,32.191925 98.368988,32.295601 
	C100.501656,32.507893 102.495827,34.070118 104.557022,35.055607 
	C106.052719,35.770729 107.564468,36.452278 109.254486,36.549744 
M61.828571,22.397650 
	C62.724052,21.580864 64.397781,20.746939 64.380234,19.950262 
	C64.304466,16.510036 58.707775,13.459965 54.146648,14.101163 
	C49.577885,14.743434 47.181553,17.882387 48.124454,22.091206 
	C49.099174,26.442045 53.120094,26.252592 56.184040,27.682543 
	C57.835621,28.453339 58.871365,30.543684 60.184959,32.038681 
	C57.938023,32.530529 55.707130,33.204121 53.434486,33.404705 
	C52.742706,33.465755 52.027843,32.013577 51.157940,31.631781 
	C50.120743,31.176559 48.905479,31.127045 47.767357,30.901772 
	C47.928444,32.107399 47.712597,33.561031 48.314854,34.476387 
	C51.156448,38.795242 59.421711,39.226234 62.895824,35.383831 
	C66.204887,31.723974 65.332977,27.315853 60.748863,25.230558 
	C58.640377,24.271420 56.275822,23.859306 54.206795,22.836287 
	C53.225277,22.350983 52.664616,21.014513 51.913296,20.063652 
	C52.964478,19.389978 54.346252,17.915781 55.006599,18.188488 
	C57.240311,19.110960 59.218319,20.652599 61.828571,22.397650 
M80.850456,14.115932 
	C78.193504,14.081363 75.527512,14.172440 72.881798,13.981854 
	C69.202515,13.716817 67.813911,15.297712 67.953239,18.936020 
	C68.143814,23.912525 67.943489,28.902979 68.051842,33.884384 
	C68.078239,35.097954 68.654953,36.299553 68.978630,37.506657 
	C69.385132,37.630405 69.791641,37.754158 70.198151,37.877907 
	C70.576309,31.951347 74.231232,31.684380 78.519653,31.944799 
	C82.827332,32.206390 86.561096,30.752987 87.780731,26.148499 
	C89.283447,20.475277 87.171974,16.663311 80.850456,14.115932 
M30.987778,19.715286 
	C30.987204,23.530006 30.741150,27.366714 31.080149,31.151016 
	C31.276581,33.343842 32.168858,37.155750 33.171585,37.300285 
	C37.245064,37.887444 41.777126,39.101631 45.501209,35.423992 
	C43.530754,34.498077 41.567158,34.122280 39.591385,34.040405 
	C37.095085,33.936954 34.864666,33.793110 34.900520,30.418062 
	C34.932934,27.366846 36.910591,27.097630 39.261627,26.981314 
	C40.654709,26.912390 42.027779,26.438997 43.409843,26.147472 
	C43.376362,25.680338 43.342880,25.213205 43.309399,24.746073 
	C42.118481,24.494217 40.826717,24.452898 39.759911,23.941923 
	C38.095749,23.144823 35.382900,22.184452 35.232353,21.019548 
	C34.774429,17.476303 37.948753,18.244249 40.136921,17.987780 
	C41.930149,17.777603 43.709461,17.448713 46.634781,16.996082 
	C42.752613,12.858307 38.934666,14.496826 35.606640,14.118450 
	C32.188580,13.729836 30.672346,15.386016 30.987778,19.715286 
M16.172173,29.482708 
	C18.310944,29.249249 21.873581,29.683508 22.348875,28.669968 
	C24.765661,23.516306 26.382792,17.987650 28.283606,12.579901 
	C23.465137,11.068203 21.121645,12.435206 20.022684,16.677814 
	C18.969967,20.741898 17.389093,24.669170 16.172173,29.482708 
z"/>
<path fill="#8E51D0" opacity="1.000000" stroke="none" 
	d="
M1.000000,12.416666 
	C5.545189,11.299411 8.041439,12.763122 9.480503,17.633568 
	C11.474125,24.380886 14.668116,30.773535 17.462179,37.596558 
	C13.374072,38.240719 10.744955,38.659306 9.281240,33.987480 
	C7.370431,27.888630 4.181671,22.190172 1.271378,16.659721 
	C1.000000,15.611111 1.000000,14.222222 1.000000,12.416666 
z"/>
<path fill="#2A2A2A" opacity="1.000000" stroke="none" 
	d="
M115.108002,22.101229 
	C115.158234,14.004093 115.158234,14.003340 122.864571,13.998812 
	C124.196167,13.998030 125.529396,13.965312 126.859085,14.017854 
	C134.255844,14.310136 138.086166,20.519964 135.240921,27.291819 
	C133.972473,30.310791 133.167740,33.524593 131.868759,37.523666 
	C131.290619,36.994457 129.892532,36.065388 128.958618,34.795055 
	C125.975006,30.736645 121.858871,31.000982 119.566208,35.426292 
	C119.112526,36.302002 118.064301,36.869686 117.290253,37.579414 
	C116.590157,36.574181 115.354462,35.604416 115.285110,34.557404 
	C115.021614,30.578991 115.135170,26.575602 115.108002,22.101229 
M119.135483,24.350571 
	C119.893242,25.800068 120.749344,28.531460 121.392113,28.482145 
	C124.554008,28.239573 127.855873,27.668344 130.676636,26.314062 
	C131.648071,25.847660 132.111771,22.494684 131.521332,20.952854 
	C129.861176,16.617619 125.736626,18.045509 122.429581,18.035376 
	C118.614647,18.023687 119.279907,21.076162 119.135483,24.350571 
z"/>
<path fill="#2B2B2B" opacity="1.000000" stroke="none" 
	d="
M109.161774,36.849270 
	C107.564468,36.452278 106.052719,35.770729 104.557022,35.055607 
	C102.495827,34.070118 100.501656,32.507893 98.368988,32.295601 
	C97.327461,32.191925 96.062660,34.607365 94.849792,35.833996 
	C94.230133,36.460686 93.502098,36.980217 92.823051,37.548183 
	C92.267807,36.819149 91.244240,36.098564 91.230904,35.359753 
	C91.117264,29.060810 91.148315,22.757875 91.258720,16.458288 
	C91.270432,15.790056 92.096214,14.545867 92.499054,14.564194 
	C97.661903,14.799079 103.238731,14.119841 107.852791,15.898102 
	C112.342476,17.628429 113.130699,23.919752 109.948563,28.452496 
	C107.875679,31.405190 108.011314,33.724739 109.161774,36.849270 
M97.753662,28.775707 
	C101.403366,28.572050 105.973076,29.681652 106.988365,24.639650 
	C107.357422,22.806919 105.807747,19.103281 104.441269,18.719776 
	C101.734680,17.960161 98.546448,18.916718 95.557304,19.163870 
	C96.018440,22.314425 96.479576,25.464979 97.753662,28.775707 
z"/>
<path fill="#2A2A2A" opacity="1.000000" stroke="none" 
	d="
M61.561317,22.177616 
	C59.218319,20.652599 57.240311,19.110960 55.006599,18.188488 
	C54.346252,17.915781 52.964478,19.389978 51.913296,20.063652 
	C52.664616,21.014513 53.225277,22.350983 54.206795,22.836287 
	C56.275822,23.859306 58.640377,24.271420 60.748863,25.230558 
	C65.332977,27.315853 66.204887,31.723974 62.895824,35.383831 
	C59.421711,39.226234 51.156448,38.795242 48.314854,34.476387 
	C47.712597,33.561031 47.928444,32.107399 47.767357,30.901772 
	C48.905479,31.127045 50.120743,31.176559 51.157940,31.631781 
	C52.027843,32.013577 52.742706,33.465755 53.434486,33.404705 
	C55.707130,33.204121 57.938023,32.530529 60.184959,32.038681 
	C58.871365,30.543684 57.835621,28.453339 56.184040,27.682543 
	C53.120094,26.252592 49.099174,26.442045 48.124454,22.091206 
	C47.181553,17.882387 49.577885,14.743434 54.146648,14.101163 
	C58.707775,13.459965 64.304466,16.510036 64.380234,19.950262 
	C64.397781,20.746939 62.724052,21.580864 61.561317,22.177616 
z"/>
<path fill="#2B2B2B" opacity="1.000000" stroke="none" 
	d="
M81.270859,14.176492 
	C87.171974,16.663311 89.283447,20.475277 87.780731,26.148499 
	C86.561096,30.752987 82.827332,32.206390 78.519653,31.944799 
	C74.231232,31.684380 70.576309,31.951347 70.198151,37.877907 
	C69.791641,37.754158 69.385132,37.630405 68.978630,37.506657 
	C68.654953,36.299553 68.078239,35.097954 68.051842,33.884384 
	C67.943489,28.902979 68.143814,23.912525 67.953239,18.936020 
	C67.813911,15.297712 69.202515,13.716817 72.881798,13.981854 
	C75.527512,14.172440 78.193504,14.081363 81.270859,14.176492 
M80.378372,28.195166 
	C83.822563,26.824938 84.860001,24.031445 83.585724,20.940416 
	C81.723976,16.424372 77.412750,18.041502 73.976105,18.075006 
	C70.484848,18.109039 71.063148,21.038172 71.022934,23.263321 
	C70.919853,28.966124 71.760498,29.452003 80.378372,28.195166 
z"/>
<path fill="#2B2B2B" opacity="1.000000" stroke="none" 
	d="
M30.990788,19.247616 
	C30.672346,15.386016 32.188580,13.729836 35.606640,14.118450 
	C38.934666,14.496826 42.752613,12.858307 46.634781,16.996082 
	C43.709461,17.448713 41.930149,17.777603 40.136921,17.987780 
	C37.948753,18.244249 34.774429,17.476303 35.232353,21.019548 
	C35.382900,22.184452 38.095749,23.144823 39.759911,23.941923 
	C40.826717,24.452898 42.118481,24.494217 43.309399,24.746073 
	C43.342880,25.213205 43.376362,25.680338 43.409843,26.147472 
	C42.027779,26.438997 40.654709,26.912390 39.261627,26.981314 
	C36.910591,27.097630 34.932934,27.366846 34.900520,30.418062 
	C34.864666,33.793110 37.095085,33.936954 39.591385,34.040405 
	C41.567158,34.122280 43.530754,34.498077 45.501209,35.423992 
	C41.777126,39.101631 37.245064,37.887444 33.171585,37.300285 
	C32.168858,37.155750 31.276581,33.343842 31.080149,31.151016 
	C30.741150,27.366714 30.987204,23.530006 30.990788,19.247616 
z"/>
<path fill="#8E51D0" opacity="1.000000" stroke="none" 
	d="
M16.106256,29.069639 
	C17.389093,24.669170 18.969967,20.741898 20.022684,16.677814 
	C21.121645,12.435206 23.465137,11.068203 28.283606,12.579901 
	C26.382792,17.987650 24.765661,23.516306 22.348875,28.669968 
	C21.873581,29.683508 18.310944,29.249249 16.106256,29.069639 
z"/>
<path fill="#010101" opacity="1.000000" stroke="none" 
	d="
M119.133575,23.914230 
	C119.279907,21.076162 118.614647,18.023687 122.429581,18.035376 
	C125.736626,18.045509 129.861176,16.617619 131.521332,20.952854 
	C132.111771,22.494684 131.648071,25.847660 130.676636,26.314062 
	C127.855873,27.668344 124.554008,28.239573 121.392113,28.482145 
	C120.749344,28.531460 119.893242,25.800068 119.133575,23.914230 
z"/>
<path fill="#010101" opacity="1.000000" stroke="none" 
	d="
M97.347191,28.695621 
	C96.479576,25.464979 96.018440,22.314425 95.557304,19.163870 
	C98.546448,18.916718 101.734680,17.960161 104.441269,18.719776 
	C105.807747,19.103281 107.357422,22.806919 106.988365,24.639650 
	C105.973076,29.681652 101.403366,28.572050 97.347191,28.695621 
z"/>
<path fill="#010101" opacity="1.000000" stroke="none" 
	d="
M79.992310,28.329659 
	C71.760498,29.452003 70.919853,28.966124 71.022934,23.263321 
	C71.063148,21.038172 70.484848,18.109039 73.976105,18.075006 
	C77.412750,18.041502 81.723976,16.424372 83.585724,20.940416 
	C84.860001,24.031445 83.822563,26.824938 79.992310,28.329659 
z"/>
</svg>